<?xml version="1.0" encoding="utf-8"?>
<!-- Generator: Adobe Illustrator 22.0.1, SVG Export Plug-In . SVG Version: 6.00 Build 0)  -->
<svg version="1.1" id="Warstwa_1" xmlns="http://www.w3.org/2000/svg" xmlns:xlink="http://www.w3.org/1999/xlink" x="0px" y="0px"
	 viewBox="0 0 100 100" style="enable-background:new 0 0 100 100;" xml:space="preserve">
<style type="text/css">
	.st0{fill:url(#SVGID_1_);}
	.st1{fill:#2C2C2C;}
	.st2{fill:url(#SVGID_2_);}
	.st3{fill:url(#SVGID_3_);}
</style>
<g>
	<linearGradient id="SVGID_1_" gradientUnits="userSpaceOnUse" x1="1.5" y1="50" x2="98.5" y2="50">
		<stop  offset="0" style="stop-color:#EE9B1D;stop-opacity:0.6"/>
		<stop  offset="1" style="stop-color:#EE9B1D"/>
	</linearGradient>
	<path class="st0" d="M2.4,98.5c-0.5,0-0.9-0.4-0.9-0.9V2.4c0-0.5,0.4-0.9,0.9-0.9h95.2c0.5,0,0.9,0.4,0.9,0.9v95.2
		c0,0.5-0.4,0.9-0.9,0.9H2.4z"/>
	<path class="st1" d="M97,3v94H3V3H97 M97.6,0H2.4C1.1,0,0,1.1,0,2.4v95.2c0,1.3,1.1,2.4,2.4,2.4h95.2c1.3,0,2.4-1.1,2.4-2.4V2.4
		C100,1.1,98.9,0,97.6,0L97.6,0z"/>
</g>
<g>
	<path class="st1" d="M63,67.9L63,67.9c-17.1,0-30.9-13.8-30.9-30.9v0C32.1,19.9,45.9,6.1,63,6.1h0c17.1,0,30.9,13.8,30.9,30.9v0
		C93.9,54.1,80.1,67.9,63,67.9z"/>
	<linearGradient id="SVGID_2_" gradientUnits="userSpaceOnUse" x1="32.0976" y1="37" x2="93.9024" y2="37">
		<stop  offset="0" style="stop-color:#EE9B1D;stop-opacity:0.6"/>
		<stop  offset="1" style="stop-color:#EE9B1D"/>
	</linearGradient>
	<path class="st2" d="M63,9.1c15.4,0,27.9,12.5,27.9,27.9c0,15.4-12.5,27.9-27.9,27.9c-15.4,0-27.9-12.5-27.9-27.9
		C35.1,21.6,47.6,9.1,63,9.1 M63,6.1L63,6.1C45.9,6.1,32.1,19.9,32.1,37v0c0,17.1,13.8,30.9,30.9,30.9h0c17.1,0,30.9-13.8,30.9-30.9
		v0C93.9,19.9,80.1,6.1,63,6.1L63,6.1z"/>
</g>
<g>
	<path class="st1" d="M26,94.1L26,94.1C15.5,94.1,6.9,85.5,6.9,75v0c0-10.5,8.6-19.1,19.1-19.1h0c10.5,0,19.1,8.6,19.1,19.1v0
		C45.1,85.5,36.5,94.1,26,94.1z"/>
	<linearGradient id="SVGID_3_" gradientUnits="userSpaceOnUse" x1="6.9008" y1="75" x2="45.0992" y2="75">
		<stop  offset="0" style="stop-color:#EE9B1D;stop-opacity:0.6"/>
		<stop  offset="1" style="stop-color:#EE9B1D"/>
	</linearGradient>
	<path class="st3" d="M26,58.9c8.9,0,16.1,7.2,16.1,16.1c0,8.9-7.2,16.1-16.1,16.1c-8.9,0-16.1-7.2-16.1-16.1
		C9.9,66.1,17.1,58.9,26,58.9 M26,55.9L26,55.9C15.5,55.9,6.9,64.5,6.9,75v0c0,10.5,8.6,19.1,19.1,19.1h0c10.5,0,19.1-8.6,19.1-19.1
		v0C45.1,64.5,36.5,55.9,26,55.9L26,55.9z"/>
</g>
</svg>
